<?xml version="1.0" standalone="no"?>
<!DOCTYPE svg PUBLIC "-//W3C//DTD SVG 20010904//EN"
 "http://www.w3.org/TR/2001/REC-SVG-20010904/DTD/svg10.dtd">
<svg version="1.0" xmlns="http://www.w3.org/2000/svg"
 width="1080.000000pt" height="1080.000000pt" viewBox="0 0 1080.000000 1080.000000"
 preserveAspectRatio="xMidYMid meet">

<g transform="translate(0.000000,1080.000000) scale(0.100000,-0.100000)"
fill="#000000" stroke="none">
<path d="M5130 8554 c-424 -51 -721 -135 -1055 -299 -626 -307 -1140 -846
-1418 -1485 -423 -972 -293 -2125 333 -2965 421 -565 1000 -955 1666 -1126
273 -69 396 -83 739 -84 266 0 317 3 445 23 460 73 869 232 1233 479 59 40
112 73 117 73 5 0 31 -13 58 -30 86 -53 295 -147 406 -184 271 -89 569 -108
841 -53 53 11 60 16 63 38 l3 26 -108 6 c-291 16 -619 133 -916 327 l-108 71
97 102 c241 253 410 489 548 766 499 994 398 2196 -258 3095 -420 575 -1008
970 -1705 1146 -225 57 -360 72 -661 75 -157 2 -301 1 -320 -1z m586 -184
c506 -56 997 -257 1414 -580 113 -88 325 -293 421 -406 365 -435 584 -954 644
-1526 87 -840 -214 -1680 -818 -2277 l-96 -94 -34 26 c-92 70 -328 314 -1131
1171 -479 511 -872 933 -874 937 -2 4 271 324 606 711 419 484 628 717 668
747 115 86 275 141 409 141 52 0 55 1 55 25 l0 25 -535 0 -535 0 0 -24 c0 -22
4 -24 63 -28 71 -4 122 -32 138 -77 15 -39 13 -98 -4 -124 -8 -13 -285 -362
-616 -776 l-601 -754 58 -61 c970 -1037 1750 -1861 1828 -1930 54 -49 134
-116 177 -149 l78 -61 -22 -17 c-59 -45 -237 -149 -356 -210 -383 -194 -794
-289 -1253 -289 -471 0 -842 87 -1261 297 -531 265 -965 693 -1234 1215 -201
392 -297 762 -312 1203 -15 480 79 919 289 1340 348 697 988 1235 1720 1446
179 52 437 98 633 113 80 6 373 -3 481 -14z"/>
<path d="M4010 7246 c0 -21 5 -24 68 -29 96 -9 134 -22 192 -68 63 -50 106
-115 120 -183 7 -35 10 -505 8 -1496 l-3 -1445 -24 -53 c-30 -67 -122 -154
-187 -176 -26 -9 -76 -16 -111 -16 -64 0 -64 0 -61 -27 l3 -28 550 0 550 0 3
28 3 27 -65 0 c-136 0 -259 83 -304 203 l-22 58 0 1454 0 1454 21 58 c45 120
153 198 292 209 72 7 77 8 77 30 l0 24 -555 0 -555 0 0 -24z"/>
</g>
</svg>
